PathFileType	4	(X/Y/Z)	 s08c0101.trc
DataRate	CameraRate	NumFrames	NumMarkers	Units	OrigDataRate	OrigDataStartFrame	OrigNumFrames
200	200	4	50	mm	200	1001	2000
Frame#	Time	racr			lacr			c7			jug			rlel			rdr			llel			ldr			s2			lic			ric			lasi			rasi			rpsi			lpsi			rgt			lgt			rth1			rth2			rth3			rth4			rlfc			rmfc			rsh1			rsh2			rsh3			rsh4			rlmal			rmmal			rcal			rtoe			rmt5			lth1			lth2			lth4			lth3			llfc			lmfc			llmal			lmmal			lcal			lmt5			lsh1			lsh2			lsh3			lsh4			ltoe			SBIKE			LBIKE			RBIKE			
		X1	Y1	Z1	X2	Y2	Z2	X3	Y3	Z3	X4	Y4	Z4	X5	Y5	Z5	X6	Y6	Z6	X7	Y7	Z7	X8	Y8	Z8	X9	Y9	Z9	X10	Y10	Z10	X11	Y11	Z11	X12	Y12	Z12	X13	Y13	Z13	X14	Y14	Z14	X15	Y15	Z15	X16	Y16	Z16	X17	Y17	Z17	X18	Y18	Z18	X19	Y19	Z19	X20	Y20	Z20	X21	Y21	Z21	X22	Y22	Z22	X23	Y23	Z23	X24	Y24	Z24	X25	Y25	Z25	X26	Y26	Z26	X27	Y27	Z27	X28	Y28	Z28	X29	Y29	Z29	X30	Y30	Z30	X31	Y31	Z31	X32	Y32	Z32	X33	Y33	Z33	X34	Y34	Z34	X35	Y35	Z35	X36	Y36	Z36	X37	Y37	Z37	X38	Y38	Z38	X39	Y39	Z39	X40	Y40	Z40	X41	Y41	Z41	X42	Y42	Z42	X43	Y43	Z43	X44	Y44	Z44	X45	Y45	Z45	X46	Y46	Z46	X47	Y47	Z47	X48	Y48	Z48	X49	Y49	Z49	X50	Y50	Z50	
1001	5.0050	544.536974	1348.140005	-34.093636	549.528576	1309.961710	-386.988257	539.428113	1415.010429	-219.950539	454.008795	1280.268326	-206.566619	569.191836	1101.881927	62.469157	784.963704	903.774070	-33.057958	559.071479	1045.244708	-486.768508	796.303326	905.372010	-414.629661	-16.269074	1208.936823	-206.471208	138.395672	1212.749176	-359.807770	138.107615	1219.505026	-38.048202	168.588053	1172.488565	-315.177018	171.195748	1164.281627	-72.440524	17.938477	1249.660291	-154.548631	15.287023	1255.590435	-250.959317	69.157403	1090.777678	-23.834592	114.359178	1110.888325	-394.718137	170.817278	947.859207	-12.385476	236.652278	887.773530	-14.143020	264.007725	806.121375	-27.920940	267.559226	908.424694	-17.655009	333.676184	709.290143	-41.649309	317.578284	696.519278	-150.494579	302.576068	579.273601	-13.346765	329.815327	495.558573	-30.965328	310.865116	411.503320	-40.138041	358.955576	501.541017	-59.370299	307.472046	291.399710	-49.427644	323.635457	315.509187	-136.599744	233.490791	260.916203	-98.406945	527.169616	259.192294	-101.284502	443.290406	220.510825	-30.797129	222.262442	1031.604417	-387.158299	303.995359	1003.251085	-374.698648	321.581868	1030.665224	-357.695001	362.640296	936.047906	-371.599688	433.167412	835.966216	-348.556102	418.944140	801.211707	-243.672653	127.474502	556.470755	-388.339270	157.752059	547.005709	-303.568845	63.649927	576.678655	-349.804323	179.012197	397.373956	-413.417798	349.760680	746.400284	-379.590099	299.301761	676.696521	-370.843757	221.822901	636.652766	-380.784593	315.149998	659.790469	-339.188817	258.929345	363.969889	-345.024112	-134.320204	947.924981	-220.091128	26.882181	84.983259	-427.330066	18.875588	80.483949	-29.852273	
1002	5.0100	547.108423	1349.409990	-37.176542	549.516113	1310.039700	-389.351261	540.287916	1416.185527	-223.330774	455.428798	1281.171333	-209.141106	571.952624	1104.179224	61.022153	786.106188	903.038326	-33.490605	558.681606	1044.461421	-486.068544	797.408002	905.973561	-414.536210	-15.242267	1209.812964	-204.209589	137.252363	1214.719401	-358.226949	142.149753	1219.645039	-36.317437	168.307372	1174.500795	-314.031464	173.684603	1163.430098	-71.099212	20.523023	1249.397498	-154.119927	15.836875	1256.808996	-247.124910	70.851771	1090.157079	-22.564941	114.589517	1114.875929	-393.629652	168.568523	945.202357	-11.438816	232.281372	883.375476	-13.841929	257.629277	800.811254	-28.054416	263.869160	902.795535	-18.034563	324.425313	702.113689	-42.512190	310.226496	687.647709	-148.730884	294.330727	572.016389	-13.506180	322.385603	488.592264	-30.989920	304.246504	404.300992	-40.037663	351.246285	494.863950	-59.644505	301.857370	284.000955	-49.253958	318.273589	307.841347	-136.403498	228.294054	254.672619	-98.061386	521.916595	248.829605	-101.569810	437.655865	211.295556	-30.950825	223.341745	1036.805677	-386.001534	305.709859	1009.989637	-373.883155	322.806212	1037.708781	-356.525633	365.490197	943.673321	-370.994498	437.641086	844.549658	-347.771312	424.128697	809.687246	-242.771922	132.004125	565.330172	-387.238448	162.378054	556.030951	-302.706785	67.577721	585.149546	-349.256713	185.394879	407.197809	-413.196777	354.319459	755.273860	-378.278018	303.741037	685.604783	-369.981357	226.155149	645.926577	-379.692190	319.828954	668.537054	-338.648759	265.461518	374.430286	-344.462925	-134.240144	948.011749	-219.771350	26.911229	85.122975	-427.353020	18.903457	80.494715	-29.832858	
1003	5.0150	549.697038	1350.886184	-40.446743	549.415314	1310.214431	-391.744603	541.124799	1417.338878	-226.753333	456.818223	1282.079930	-211.624094	574.898796	1106.366360	59.538337	787.139639	902.592009	-34.547135	558.455490	1043.846637	-486.055221	798.408295	906.633463	-414.336742	-14.362555	1211.366460	-200.871555	135.935868	1216.631657	-356.362342	146.273852	1219.382909	-34.468837	168.003522	1176.671065	-312.911121	175.924179	1162.516475	-70.114944	22.632471	1249.872875	-150.782510	16.383306	1257.971521	-243.465960	72.318193	1089.771520	-21.468615	114.616399	1118.912567	-392.378744	165.851397	942.806400	-10.836000	227.717039	879.145500	-13.719737	249.838161	796.126598	-27.759839	259.717733	897.585889	-18.377309	314.558286	695.395038	-43.158930	298.390297	681.485395	-149.262781	285.265223	565.134907	-13.508005	314.244672	482.036866	-30.922614	297.012059	397.512575	-39.888103	343.014372	488.471371	-59.678182	295.820775	277.192860	-48.924653	312.018672	301.005739	-136.145194	222.601287	249.063179	-97.703389	516.182358	238.786702	-101.958348	431.516769	202.598534	-30.998783	224.251784	1042.375209	-385.123276	307.033433	1016.701389	-373.060380	323.576149	1044.722358	-355.332709	368.149135	951.676271	-370.667268	441.571597	853.127119	-346.447052	429.287530	818.099469	-242.206574	136.850419	573.845186	-386.323868	167.214399	564.651473	-301.788140	71.636029	592.597556	-348.344048	192.483751	416.958670	-413.223756	358.679327	764.645811	-377.691642	308.204341	694.600187	-369.220664	230.631200	654.882786	-378.700496	324.629158	677.122221	-338.144972	272.648591	384.886650	-343.902940	-134.172466	948.075914	-219.471909	26.962087	85.242943	-427.306056	18.936959	80.535051	-29.810022	
1004	5.0200	552.415799	1352.389684	-43.843839	549.202358	1310.569538	-394.263402	541.937289	1418.400759	-230.274002	458.255522	1282.876258	-214.082217	577.917709	1108.556890	58.007500	787.777774	901.243259	-34.775921	558.096950	1043.257707	-486.255693	799.327962	907.247893	-414.171094	-7.792979	1209.732644	-204.864794	134.842624	1218.598492	-354.786563	150.384400	1219.411543	-33.045992	167.730372	1178.879376	-311.777030	178.165962	1161.819264	-69.171870	24.691991	1250.550269	-147.365261	16.815594	1259.308494	-240.053821	73.708398	1089.846291	-20.426822	114.622455	1122.908259	-391.056550	162.882428	940.828156	-10.247660	222.812440	875.140615	-13.517886	241.844665	791.378684	-27.661575	255.311838	892.630646	-18.521612	304.027424	689.283228	-43.496198	286.536373	675.306687	-149.455605	275.867249	558.594696	-13.243905	305.539620	475.896953	-30.699690	289.149274	391.210766	-39.546875	334.186766	482.714879	-59.397594	289.447852	270.812758	-48.676403	305.543792	294.562899	-135.879564	216.540563	243.796427	-97.489572	509.893105	229.208548	-102.225165	424.797303	194.384337	-30.963432	225.021348	1047.756048	-384.450603	308.440222	1023.713975	-372.720906	324.049603	1051.563641	-353.972196	370.547376	959.669599	-370.507118	445.658739	861.803248	-346.160571	433.991629	827.659469	-240.969937	141.752368	581.688811	-385.111583	172.361823	572.919125	-300.951142	76.417474	599.583732	-347.220431	199.704851	426.025874	-412.839059	363.081173	773.756684	-377.370951	312.778170	703.441602	-368.847288	235.227918	663.575288	-377.873164	329.543346	685.655530	-338.081630	281.208241	394.852093	-343.159484	-134.014336	948.206998	-219.210660	27.005595	85.395192	-427.263806	18.973784	80.572840	-29.774320	
